<svg width="1024" height="1024" viewBox="0 0 1024 1024" xmlns="http://www.w3.org/2000/svg">
  <rect x="90" y="90" width="844" height="844" rx="190" fill="#b3202a"/>
  <g transform="translate(90,90) scale(5.275)">
    <polygon points="42,58 50,30 66,52" fill="#9aa0a7"/>
    <polygon points="118,58 110,30 94,52" fill="#9aa0a7"/>
    <polygon points="46,54 52,38 62,52" fill="#c9848a"/>
    <polygon points="114,54 108,38 98,52" fill="#c9848a"/>
    <circle cx="80" cy="96" r="48" fill="#9aa0a7"/>
    <g transform="rotate(-8 70 46)">
      <ellipse cx="70" cy="46" rx="42" ry="17" fill="#17171a"/>
      <rect x="66" y="26" width="8" height="7" rx="3" fill="#17171a"/>
    </g>
    <polygon points="88,42 90.4,47.8 96.6,48 91.8,51.9 93.4,57.9 88,54.5 82.6,57.9 84.2,51.9 79.4,48 85.6,47.8" fill="#d4af37"/>
    <line x1="54" y1="80" x2="72" y2="87" stroke="#2b2d31" stroke-width="5" stroke-linecap="round"/>
    <line x1="106" y1="80" x2="88" y2="87" stroke="#2b2d31" stroke-width="5" stroke-linecap="round"/>
    <circle cx="63" cy="96" r="4.5" fill="#2b2d31"/>
    <circle cx="97" cy="96" r="4.5" fill="#2b2d31"/>
    <ellipse cx="80" cy="118" rx="25" ry="16" fill="#e9e9e9"/>
    <polygon points="74,108 86,108 80,115" fill="#c76b6b"/>
    <path d="M64,130 Q80,118 96,130" stroke="#2b2d31" stroke-width="4" fill="none" stroke-linecap="round"/>
    <line x1="38" y1="112" x2="54" y2="114" stroke="#7d838b" stroke-width="2.5" stroke-linecap="round"/>
    <line x1="38" y1="122" x2="54" y2="120" stroke="#7d838b" stroke-width="2.5" stroke-linecap="round"/>
    <line x1="122" y1="112" x2="106" y2="114" stroke="#7d838b" stroke-width="2.5" stroke-linecap="round"/>
    <line x1="122" y1="122" x2="106" y2="120" stroke="#7d838b" stroke-width="2.5" stroke-linecap="round"/>
  </g>
</svg>
